<svg width="910" height="324" viewBox="0 0 910 324" fill="none" xmlns="http://www.w3.org/2000/svg">
<path d="M0 70V75.5V254C0 292.66 31.3401 324 70 324H254C292.66 324 324 292.66 324 254V70C324 31.3401 292.66 0 254 0H85.5H70C31.3401 0 0 31.3401 0 70Z" fill="#F5F0F0"/>
<path d="M314.5 164.455L164.003 313.5H162.5H161.053L10.5 161.011V159.045L161.497 9.5H163.447L314.5 162.489V164.455Z" stroke="#1E1E1E" stroke-width="17"/>
<path d="M213.724 162.725L162.046 213.904L110.276 161.468L161.952 110.289L213.724 162.725Z" stroke="#1E1E1E" stroke-width="17"/>
<path d="M267.166 162.883L162.539 266.5H162.517L57.8342 160.471L162.468 56.8429L267.166 162.883Z" stroke="#1E1E1E" stroke-width="17"/>
<path d="M267.166 162.883L162.539 266.5H162.517L57.8342 160.471L162.468 56.8429L267.166 162.883Z" stroke="#1E1E1E" stroke-width="17"/>
<path d="M437.676 113.582V166H429.085V132.142C429.085 130.789 429.158 129.327 429.303 127.756L413.461 157.517C412.712 158.943 411.564 159.656 410.018 159.656H408.64C407.093 159.656 405.945 158.943 405.196 157.517L389.174 127.647C389.246 128.445 389.307 129.23 389.355 130.004C389.403 130.777 389.428 131.49 389.428 132.142V166H380.836V113.582H388.195C388.63 113.582 389.005 113.595 389.319 113.619C389.633 113.643 389.911 113.703 390.153 113.8C390.418 113.897 390.648 114.054 390.841 114.271C391.059 114.489 391.264 114.779 391.458 115.141L407.154 144.25C407.565 145.023 407.939 145.821 408.278 146.642C408.64 147.464 408.99 148.31 409.329 149.18C409.667 148.286 410.018 147.428 410.38 146.606C410.743 145.76 411.129 144.951 411.54 144.177L427.019 115.141C427.212 114.779 427.418 114.489 427.635 114.271C427.853 114.054 428.082 113.897 428.324 113.8C428.59 113.703 428.88 113.643 429.194 113.619C429.508 113.595 429.883 113.582 430.318 113.582H437.676ZM459.159 166H449.371V113.582H459.159V166ZM515.084 113.582V166H510.081C509.308 166 508.655 165.879 508.124 165.637C507.616 165.372 507.121 164.937 506.637 164.332L479.269 129.388C479.414 130.982 479.486 132.457 479.486 133.81V166H470.895V113.582H476.006C476.417 113.582 476.767 113.607 477.057 113.655C477.372 113.679 477.637 113.752 477.855 113.872C478.097 113.969 478.326 114.126 478.544 114.344C478.761 114.537 479.003 114.803 479.269 115.141L506.746 150.231C506.674 149.385 506.613 148.552 506.565 147.73C506.517 146.908 506.492 146.147 506.492 145.446V113.582H515.084ZM573.302 139.791C573.302 143.634 572.661 147.162 571.38 150.376C570.1 153.59 568.299 156.357 565.979 158.677C563.659 160.997 560.868 162.798 557.605 164.079C554.343 165.36 550.718 166 546.73 166H526.757V113.582H546.73C550.718 113.582 554.343 114.235 557.605 115.54C560.868 116.821 563.659 118.621 565.979 120.941C568.299 123.237 570.1 125.992 571.38 129.206C572.661 132.42 573.302 135.949 573.302 139.791ZM563.297 139.791C563.297 136.915 562.91 134.342 562.137 132.07C561.387 129.774 560.288 127.841 558.838 126.27C557.412 124.675 555.672 123.455 553.618 122.609C551.588 121.763 549.292 121.34 546.73 121.34H536.544V158.242H546.73C549.292 158.242 551.588 157.82 553.618 156.974C555.672 156.128 557.412 154.92 558.838 153.349C560.288 151.754 561.387 149.82 562.137 147.549C562.91 145.253 563.297 142.667 563.297 139.791ZM591.698 121.34V136.855H611.345V144.649H591.698V166H581.91V113.582H614.97V121.34H591.698ZM644.072 158.134C645.957 158.134 647.637 157.82 649.111 157.191C650.61 156.563 651.866 155.681 652.881 154.545C653.896 153.409 654.67 152.032 655.201 150.412C655.757 148.793 656.035 146.981 656.035 144.975V113.582H665.786V144.975C665.786 148.092 665.279 150.98 664.264 153.639C663.273 156.273 661.835 158.557 659.95 160.49C658.089 162.399 655.817 163.897 653.135 164.985C650.452 166.048 647.432 166.58 644.072 166.58C640.689 166.58 637.656 166.048 634.974 164.985C632.291 163.897 630.007 162.399 628.122 160.49C626.262 158.557 624.824 156.273 623.809 153.639C622.818 150.98 622.322 148.092 622.322 144.975V113.582H632.074V144.939C632.074 146.945 632.34 148.757 632.871 150.376C633.427 151.995 634.212 153.385 635.227 154.545C636.267 155.681 637.523 156.563 638.997 157.191C640.496 157.82 642.187 158.134 644.072 158.134ZM707.487 157.952V166H676.784V113.582H686.535V157.952H707.487ZM771.29 113.582V166H762.698V132.142C762.698 130.789 762.771 129.327 762.916 127.756L747.075 157.517C746.325 158.943 745.177 159.656 743.631 159.656H742.253C740.707 159.656 739.559 158.943 738.81 157.517L722.787 127.647C722.86 128.445 722.92 129.23 722.968 130.004C723.017 130.777 723.041 131.49 723.041 132.142V166H714.45V113.582H721.808C722.243 113.582 722.618 113.595 722.932 113.619C723.246 113.643 723.524 113.703 723.766 113.8C724.032 113.897 724.261 114.054 724.455 114.271C724.672 114.489 724.877 114.779 725.071 115.141L740.767 144.25C741.178 145.023 741.552 145.821 741.891 146.642C742.253 147.464 742.604 148.31 742.942 149.18C743.28 148.286 743.631 147.428 743.993 146.606C744.356 145.76 744.742 144.951 745.153 144.177L760.632 115.141C760.825 114.779 761.031 114.489 761.248 114.271C761.466 114.054 761.695 113.897 761.937 113.8C762.203 113.703 762.493 113.643 762.807 113.619C763.121 113.595 763.496 113.582 763.931 113.582H771.29ZM792.772 166H782.985V113.582H792.772V166ZM848.697 113.582V166H843.694C842.921 166 842.269 165.879 841.737 165.637C841.229 165.372 840.734 164.937 840.251 164.332L812.882 129.388C813.027 130.982 813.099 132.457 813.099 133.81V166H804.508V113.582H809.619C810.03 113.582 810.381 113.607 810.671 113.655C810.985 113.679 811.251 113.752 811.468 113.872C811.71 113.969 811.939 114.126 812.157 114.344C812.374 114.537 812.616 114.803 812.882 115.141L840.359 150.231C840.287 149.385 840.226 148.552 840.178 147.73C840.13 146.908 840.106 146.147 840.106 145.446V113.582H848.697ZM906.915 139.791C906.915 143.634 906.275 147.162 904.994 150.376C903.713 153.59 901.912 156.357 899.592 158.677C897.272 160.997 894.481 162.798 891.219 164.079C887.956 165.36 884.331 166 880.344 166H860.37V113.582H880.344C884.331 113.582 887.956 114.235 891.219 115.54C894.481 116.821 897.272 118.621 899.592 120.941C901.912 123.237 903.713 125.992 904.994 129.206C906.275 132.42 906.915 135.949 906.915 139.791ZM896.91 139.791C896.91 136.915 896.523 134.342 895.75 132.07C895.001 129.774 893.901 127.841 892.451 126.27C891.025 124.675 889.285 123.455 887.231 122.609C885.201 121.763 882.905 121.34 880.344 121.34H870.157V158.242H880.344C882.905 158.242 885.201 157.82 887.231 156.974C889.285 156.128 891.025 154.92 892.451 153.349C893.901 151.754 895.001 149.82 895.75 147.549C896.523 145.253 896.91 142.667 896.91 139.791Z" fill="#F5F0F0"/>
<path d="M386.4 209.759C387.291 209.759 388.068 209.651 388.731 209.434C389.393 209.205 389.941 208.886 390.375 208.476C390.82 208.055 391.152 207.549 391.369 206.959C391.585 206.356 391.694 205.688 391.694 204.953C391.694 204.255 391.585 203.622 391.369 203.056C391.152 202.49 390.827 202.008 390.393 201.611C389.959 201.213 389.411 200.912 388.749 200.708C388.086 200.491 387.303 200.382 386.4 200.382H382.769V209.759H386.4ZM386.4 196.624C388.147 196.624 389.658 196.829 390.935 197.239C392.212 197.648 393.266 198.22 394.097 198.955C394.928 199.69 395.542 200.569 395.939 201.593C396.349 202.617 396.554 203.737 396.554 204.953C396.554 206.218 396.343 207.38 395.921 208.44C395.5 209.488 394.867 210.391 394.024 211.15C393.181 211.909 392.121 212.499 390.845 212.921C389.58 213.342 388.098 213.553 386.4 213.553H382.769V222.749H377.909V196.624H386.4ZM408.176 209.054C409.091 209.054 409.886 208.94 410.561 208.711C411.247 208.482 411.807 208.169 412.241 207.772C412.686 207.362 413.018 206.88 413.234 206.326C413.451 205.772 413.56 205.164 413.56 204.502C413.56 203.177 413.12 202.159 412.241 201.448C411.374 200.738 410.043 200.382 408.248 200.382H405.14V209.054H408.176ZM420.678 222.749H416.288C415.457 222.749 414.854 222.424 414.481 221.773L408.989 213.408C408.784 213.095 408.555 212.873 408.302 212.74C408.061 212.608 407.7 212.541 407.218 212.541H405.14V222.749H400.281V196.624H408.248C410.019 196.624 411.536 196.811 412.801 197.185C414.078 197.546 415.119 198.058 415.926 198.72C416.745 199.383 417.348 200.178 417.733 201.105C418.118 202.02 418.311 203.032 418.311 204.14C418.311 205.019 418.179 205.851 417.914 206.633C417.661 207.416 417.287 208.127 416.794 208.765C416.312 209.404 415.71 209.964 414.987 210.446C414.276 210.927 413.463 211.307 412.548 211.584C412.861 211.764 413.15 211.981 413.415 212.234C413.68 212.475 413.921 212.764 414.138 213.101L420.678 222.749ZM448.06 209.687C448.06 211.602 447.741 213.378 447.103 215.016C446.477 216.642 445.585 218.052 444.429 219.244C443.273 220.436 441.882 221.37 440.256 222.044C438.63 222.707 436.823 223.038 434.836 223.038C432.86 223.038 431.06 222.707 429.434 222.044C427.808 221.37 426.41 220.436 425.242 219.244C424.086 218.052 423.188 216.642 422.55 215.016C421.912 213.378 421.593 211.602 421.593 209.687C421.593 207.772 421.912 206.001 422.55 204.375C423.188 202.737 424.086 201.322 425.242 200.129C426.41 198.937 427.808 198.01 429.434 197.347C431.06 196.673 432.86 196.335 434.836 196.335C436.16 196.335 437.407 196.492 438.575 196.805C439.744 197.106 440.816 197.54 441.791 198.106C442.767 198.66 443.64 199.34 444.411 200.147C445.194 200.942 445.856 201.834 446.398 202.821C446.94 203.809 447.35 204.881 447.627 206.037C447.916 207.194 448.06 208.41 448.06 209.687ZM443.092 209.687C443.092 208.253 442.899 206.971 442.514 205.839C442.128 204.694 441.58 203.725 440.87 202.93C440.159 202.135 439.292 201.527 438.268 201.105C437.256 200.683 436.112 200.473 434.836 200.473C433.559 200.473 432.409 200.683 431.385 201.105C430.373 201.527 429.506 202.135 428.783 202.93C428.073 203.725 427.524 204.694 427.139 205.839C426.754 206.971 426.561 208.253 426.561 209.687C426.561 211.12 426.754 212.409 427.139 213.553C427.524 214.685 428.073 215.649 428.783 216.444C429.506 217.227 430.373 217.829 431.385 218.25C432.409 218.672 433.559 218.883 434.836 218.883C436.112 218.883 437.256 218.672 438.268 218.25C439.292 217.829 440.159 217.227 440.87 216.444C441.58 215.649 442.128 214.685 442.514 213.553C442.899 212.409 443.092 211.12 443.092 209.687ZM475.526 209.687C475.526 211.602 475.207 213.36 474.569 214.962C473.93 216.564 473.033 217.943 471.877 219.1C470.72 220.256 469.329 221.153 467.703 221.791C466.077 222.43 464.271 222.749 462.283 222.749H452.328V196.624H462.283C464.271 196.624 466.077 196.95 467.703 197.6C469.329 198.238 470.72 199.136 471.877 200.292C473.033 201.436 473.93 202.809 474.569 204.411C475.207 206.013 475.526 207.772 475.526 209.687ZM470.54 209.687C470.54 208.253 470.347 206.971 469.962 205.839C469.588 204.694 469.04 203.731 468.318 202.948C467.607 202.153 466.74 201.545 465.716 201.123C464.704 200.702 463.56 200.491 462.283 200.491H457.206V218.883H462.283C463.56 218.883 464.704 218.672 465.716 218.25C466.74 217.829 467.607 217.227 468.318 216.444C469.04 215.649 469.588 214.685 469.962 213.553C470.347 212.409 470.54 211.12 470.54 209.687ZM490.332 218.829C491.271 218.829 492.108 218.672 492.843 218.359C493.59 218.046 494.216 217.606 494.722 217.04C495.228 216.474 495.613 215.787 495.878 214.98C496.155 214.173 496.294 213.27 496.294 212.27V196.624H501.154V212.27C501.154 213.824 500.901 215.263 500.395 216.588C499.901 217.901 499.184 219.039 498.245 220.003C497.317 220.954 496.185 221.701 494.848 222.243C493.511 222.773 492.006 223.038 490.332 223.038C488.645 223.038 487.134 222.773 485.797 222.243C484.46 221.701 483.322 220.954 482.382 220.003C481.455 219.039 480.738 217.901 480.232 216.588C479.738 215.263 479.492 213.824 479.492 212.27V196.624H484.352V212.252C484.352 213.252 484.484 214.155 484.749 214.962C485.026 215.769 485.417 216.462 485.923 217.04C486.441 217.606 487.068 218.046 487.802 218.359C488.549 218.672 489.392 218.829 490.332 218.829ZM524.575 216.588C524.84 216.588 525.075 216.691 525.28 216.895L527.195 218.973C526.135 220.286 524.828 221.292 523.274 221.99C521.732 222.689 519.878 223.038 517.71 223.038C515.77 223.038 514.024 222.707 512.47 222.044C510.929 221.382 509.61 220.461 508.514 219.28C507.418 218.1 506.574 216.691 505.984 215.053C505.406 213.415 505.117 211.626 505.117 209.687C505.117 207.723 505.43 205.929 506.057 204.303C506.683 202.665 507.562 201.256 508.694 200.075C509.839 198.895 511.2 197.979 512.777 197.329C514.355 196.667 516.102 196.335 518.017 196.335C519.92 196.335 521.606 196.649 523.075 197.275C524.557 197.901 525.816 198.72 526.851 199.732L525.225 201.99C525.129 202.135 525.003 202.261 524.846 202.37C524.701 202.478 524.497 202.532 524.232 202.532C524.051 202.532 523.864 202.484 523.672 202.388C523.479 202.279 523.268 202.153 523.039 202.008C522.81 201.852 522.545 201.683 522.244 201.502C521.943 201.322 521.594 201.159 521.196 201.015C520.799 200.858 520.335 200.732 519.805 200.635C519.287 200.527 518.685 200.473 517.999 200.473C516.83 200.473 515.758 200.683 514.783 201.105C513.819 201.515 512.988 202.117 512.29 202.912C511.591 203.695 511.049 204.658 510.664 205.802C510.278 206.935 510.085 208.229 510.085 209.687C510.085 211.156 510.29 212.463 510.7 213.607C511.121 214.751 511.687 215.715 512.398 216.498C513.109 217.281 513.946 217.883 514.909 218.305C515.873 218.714 516.909 218.919 518.017 218.919C518.679 218.919 519.275 218.883 519.805 218.81C520.347 218.738 520.841 218.624 521.287 218.467C521.745 218.311 522.172 218.112 522.57 217.871C522.979 217.618 523.383 217.311 523.78 216.95C523.9 216.841 524.027 216.757 524.159 216.697C524.292 216.624 524.43 216.588 524.575 216.588ZM548.771 200.617H540.894V222.749H536.034V200.617H528.157V196.624H548.771V200.617ZM557.068 222.749H552.19V196.624H557.068V222.749ZM585.302 196.624L574.751 222.749H570.36L559.809 196.624H563.712C564.133 196.624 564.477 196.727 564.742 196.932C565.007 197.136 565.205 197.401 565.338 197.727L571.499 213.661C571.703 214.179 571.896 214.751 572.077 215.378C572.27 215.992 572.45 216.636 572.619 217.311C572.763 216.636 572.92 215.992 573.089 215.378C573.257 214.751 573.444 214.179 573.649 213.661L579.773 197.727C579.87 197.449 580.056 197.197 580.333 196.968C580.622 196.739 580.972 196.624 581.381 196.624H585.302ZM592.884 222.749H588.006V196.624H592.884V222.749ZM621.931 209.687C621.931 211.602 621.612 213.36 620.973 214.962C620.335 216.564 619.438 217.943 618.281 219.1C617.125 220.256 615.734 221.153 614.108 221.791C612.482 222.43 610.675 222.749 608.688 222.749H598.733V196.624H608.688C610.675 196.624 612.482 196.95 614.108 197.6C615.734 198.238 617.125 199.136 618.281 200.292C619.438 201.436 620.335 202.809 620.973 204.411C621.612 206.013 621.931 207.772 621.931 209.687ZM616.944 209.687C616.944 208.253 616.752 206.971 616.366 205.839C615.993 204.694 615.445 203.731 614.722 202.948C614.011 202.153 613.144 201.545 612.12 201.123C611.109 200.702 609.964 200.491 608.688 200.491H603.611V218.883H608.688C609.964 218.883 611.109 218.672 612.12 218.25C613.144 217.829 614.011 217.227 614.722 216.444C615.445 215.649 615.993 214.685 616.366 213.553C616.752 212.409 616.944 211.12 616.944 209.687ZM639.213 212.885L636.033 204.194C635.876 203.809 635.714 203.351 635.545 202.821C635.377 202.291 635.208 201.719 635.039 201.105C634.883 201.719 634.72 202.297 634.551 202.839C634.383 203.369 634.22 203.833 634.064 204.231L630.902 212.885H639.213ZM647.794 222.749H644.037C643.615 222.749 643.272 222.647 643.007 222.442C642.742 222.225 642.543 221.96 642.411 221.647L640.459 216.317H629.637L627.686 221.647C627.59 221.924 627.403 222.177 627.126 222.406C626.849 222.635 626.506 222.749 626.096 222.749H622.302L632.582 196.624H637.533L647.794 222.749ZM673.696 209.687C673.696 211.602 673.377 213.36 672.739 214.962C672.1 216.564 671.203 217.943 670.047 219.1C668.891 220.256 667.499 221.153 665.873 221.791C664.247 222.43 662.441 222.749 660.453 222.749H650.499V196.624H660.453C662.441 196.624 664.247 196.95 665.873 197.6C667.499 198.238 668.891 199.136 670.047 200.292C671.203 201.436 672.1 202.809 672.739 204.411C673.377 206.013 673.696 207.772 673.696 209.687ZM668.71 209.687C668.71 208.253 668.517 206.971 668.132 205.839C667.758 204.694 667.21 203.731 666.488 202.948C665.777 202.153 664.91 201.545 663.886 201.123C662.874 200.702 661.73 200.491 660.453 200.491H655.377V218.883H660.453C661.73 218.883 662.874 218.672 663.886 218.25C664.91 217.829 665.777 217.227 666.488 216.444C667.21 215.649 667.758 214.685 668.132 213.553C668.517 212.409 668.71 211.12 668.71 209.687ZM704.714 216.588C704.979 216.588 705.213 216.691 705.418 216.895L707.333 218.973C706.273 220.286 704.967 221.292 703.413 221.99C701.871 222.689 700.016 223.038 697.848 223.038C695.909 223.038 694.163 222.707 692.609 222.044C691.067 221.382 689.748 220.461 688.652 219.28C687.556 218.1 686.713 216.691 686.123 215.053C685.545 213.415 685.256 211.626 685.256 209.687C685.256 207.723 685.569 205.929 686.195 204.303C686.821 202.665 687.701 201.256 688.833 200.075C689.977 198.895 691.338 197.979 692.916 197.329C694.494 196.667 696.24 196.335 698.155 196.335C700.058 196.335 701.745 196.649 703.214 197.275C704.696 197.901 705.954 198.72 706.99 199.732L705.364 201.99C705.268 202.135 705.141 202.261 704.985 202.37C704.84 202.478 704.635 202.532 704.37 202.532C704.19 202.532 704.003 202.484 703.81 202.388C703.618 202.279 703.407 202.153 703.178 202.008C702.949 201.852 702.684 201.683 702.383 201.502C702.082 201.322 701.733 201.159 701.335 201.015C700.938 200.858 700.474 200.732 699.944 200.635C699.426 200.527 698.824 200.473 698.137 200.473C696.969 200.473 695.897 200.683 694.921 201.105C693.958 201.515 693.127 202.117 692.428 202.912C691.73 203.695 691.188 204.658 690.802 205.802C690.417 206.935 690.224 208.229 690.224 209.687C690.224 211.156 690.429 212.463 690.838 213.607C691.26 214.751 691.826 215.715 692.537 216.498C693.247 217.281 694.084 217.883 695.048 218.305C696.011 218.714 697.047 218.919 698.155 218.919C698.818 218.919 699.414 218.883 699.944 218.81C700.486 218.738 700.98 218.624 701.425 218.467C701.883 218.311 702.311 218.112 702.708 217.871C703.118 217.618 703.521 217.311 703.919 216.95C704.039 216.841 704.166 216.757 704.298 216.697C704.431 216.624 704.569 216.588 704.714 216.588ZM735.012 209.687C735.012 211.602 734.693 213.378 734.054 215.016C733.428 216.642 732.537 218.052 731.38 219.244C730.224 220.436 728.833 221.37 727.207 222.044C725.581 222.707 723.774 223.038 721.787 223.038C719.812 223.038 718.011 222.707 716.385 222.044C714.759 221.37 713.362 220.436 712.194 219.244C711.037 218.052 710.14 216.642 709.502 215.016C708.863 213.378 708.544 211.602 708.544 209.687C708.544 207.772 708.863 206.001 709.502 204.375C710.14 202.737 711.037 201.322 712.194 200.129C713.362 198.937 714.759 198.01 716.385 197.347C718.011 196.673 719.812 196.335 721.787 196.335C723.112 196.335 724.359 196.492 725.527 196.805C726.695 197.106 727.767 197.54 728.743 198.106C729.718 198.66 730.592 199.34 731.362 200.147C732.145 200.942 732.808 201.834 733.35 202.821C733.892 203.809 734.301 204.881 734.578 206.037C734.867 207.194 735.012 208.41 735.012 209.687ZM730.044 209.687C730.044 208.253 729.851 206.971 729.465 205.839C729.08 204.694 728.532 203.725 727.821 202.93C727.111 202.135 726.244 201.527 725.22 201.105C724.208 200.683 723.064 200.473 721.787 200.473C720.51 200.473 719.36 200.683 718.336 201.105C717.325 201.527 716.457 202.135 715.735 202.93C715.024 203.725 714.476 204.694 714.091 205.839C713.705 206.971 713.512 208.253 713.512 209.687C713.512 211.12 713.705 212.409 714.091 213.553C714.476 214.685 715.024 215.649 715.735 216.444C716.457 217.227 717.325 217.829 718.336 218.25C719.36 218.672 720.51 218.883 721.787 218.883C723.064 218.883 724.208 218.672 725.22 218.25C726.244 217.829 727.111 217.227 727.821 216.444C728.532 215.649 729.08 214.685 729.465 213.553C729.851 212.409 730.044 211.12 730.044 209.687ZM761.303 196.624V222.749H758.81C758.425 222.749 758.099 222.689 757.835 222.568C757.582 222.436 757.335 222.219 757.094 221.918L743.453 204.502C743.526 205.297 743.562 206.031 743.562 206.706V222.749H739.28V196.624H741.827C742.032 196.624 742.207 196.636 742.351 196.661C742.508 196.673 742.64 196.709 742.749 196.769C742.869 196.817 742.984 196.895 743.092 197.004C743.2 197.1 743.321 197.233 743.453 197.401L757.148 214.89C757.112 214.468 757.082 214.053 757.058 213.643C757.034 213.234 757.021 212.854 757.021 212.505V196.624H761.303ZM781.033 201.376C780.888 201.629 780.731 201.816 780.563 201.936C780.406 202.044 780.208 202.099 779.967 202.099C779.714 202.099 779.437 202.008 779.136 201.828C778.846 201.635 778.497 201.424 778.088 201.195C777.678 200.966 777.196 200.762 776.642 200.581C776.1 200.388 775.456 200.292 774.709 200.292C774.035 200.292 773.445 200.376 772.939 200.545C772.433 200.702 772.005 200.924 771.656 201.213C771.319 201.502 771.066 201.852 770.897 202.261C770.728 202.659 770.644 203.098 770.644 203.58C770.644 204.194 770.813 204.706 771.15 205.116C771.499 205.525 771.957 205.875 772.523 206.164C773.089 206.453 773.734 206.712 774.456 206.941C775.179 207.169 775.92 207.416 776.678 207.681C777.437 207.934 778.178 208.235 778.901 208.585C779.623 208.922 780.268 209.356 780.834 209.885C781.4 210.403 781.852 211.042 782.189 211.801C782.538 212.559 782.713 213.481 782.713 214.565C782.713 215.745 782.508 216.853 782.098 217.889C781.701 218.913 781.111 219.81 780.328 220.581C779.557 221.34 778.612 221.942 777.491 222.388C776.371 222.821 775.089 223.038 773.643 223.038C772.812 223.038 771.993 222.954 771.186 222.785C770.379 222.629 769.602 222.4 768.856 222.099C768.121 221.798 767.428 221.436 766.778 221.015C766.127 220.593 765.549 220.123 765.043 219.605L766.471 217.275C766.591 217.106 766.748 216.968 766.94 216.859C767.133 216.739 767.338 216.679 767.555 216.679C767.856 216.679 768.181 216.805 768.53 217.058C768.88 217.299 769.295 217.57 769.777 217.871C770.259 218.172 770.819 218.449 771.457 218.702C772.108 218.943 772.884 219.063 773.788 219.063C775.173 219.063 776.245 218.738 777.004 218.088C777.762 217.425 778.142 216.48 778.142 215.251C778.142 214.565 777.967 214.005 777.618 213.571C777.281 213.137 776.829 212.776 776.263 212.487C775.697 212.186 775.052 211.933 774.33 211.728C773.607 211.524 772.872 211.301 772.126 211.06C771.379 210.819 770.644 210.53 769.921 210.193C769.199 209.855 768.554 209.416 767.988 208.874C767.422 208.332 766.965 207.657 766.615 206.85C766.278 206.031 766.109 205.025 766.109 203.833C766.109 202.882 766.296 201.954 766.669 201.051C767.055 200.147 767.609 199.347 768.332 198.648C769.054 197.949 769.946 197.389 771.005 196.968C772.065 196.546 773.282 196.335 774.655 196.335C776.197 196.335 777.618 196.576 778.919 197.058C780.22 197.54 781.328 198.214 782.243 199.082L781.033 201.376ZM804.893 216.588C805.158 216.588 805.392 216.691 805.597 216.895L807.512 218.973C806.452 220.286 805.146 221.292 803.592 221.99C802.05 222.689 800.195 223.038 798.027 223.038C796.088 223.038 794.342 222.707 792.788 222.044C791.246 221.382 789.927 220.461 788.831 219.28C787.735 218.1 786.892 216.691 786.302 215.053C785.724 213.415 785.435 211.626 785.435 209.687C785.435 207.723 785.748 205.929 786.374 204.303C787 202.665 787.88 201.256 789.012 200.075C790.156 198.895 791.517 197.979 793.095 197.329C794.673 196.667 796.419 196.335 798.334 196.335C800.237 196.335 801.924 196.649 803.393 197.275C804.875 197.901 806.133 198.72 807.169 199.732L805.543 201.99C805.447 202.135 805.32 202.261 805.164 202.37C805.019 202.478 804.814 202.532 804.549 202.532C804.369 202.532 804.182 202.484 803.989 202.388C803.797 202.279 803.586 202.153 803.357 202.008C803.128 201.852 802.863 201.683 802.562 201.502C802.261 201.322 801.912 201.159 801.514 201.015C801.117 200.858 800.653 200.732 800.123 200.635C799.605 200.527 799.003 200.473 798.316 200.473C797.148 200.473 796.076 200.683 795.1 201.105C794.137 201.515 793.306 202.117 792.607 202.912C791.909 203.695 791.367 204.658 790.981 205.802C790.596 206.935 790.403 208.229 790.403 209.687C790.403 211.156 790.608 212.463 791.017 213.607C791.439 214.751 792.005 215.715 792.716 216.498C793.426 217.281 794.263 217.883 795.227 218.305C796.19 218.714 797.226 218.919 798.334 218.919C798.997 218.919 799.593 218.883 800.123 218.81C800.665 218.738 801.159 218.624 801.604 218.467C802.062 218.311 802.49 218.112 802.887 217.871C803.297 217.618 803.7 217.311 804.098 216.95C804.218 216.841 804.345 216.757 804.477 216.697C804.61 216.624 804.748 216.588 804.893 216.588ZM815.719 222.749H810.841V196.624H815.719V222.749ZM826.447 200.491V207.736H835.588V211.475H826.447V218.865H838.045V222.749H821.569V196.624H838.045V200.491H826.447ZM864.376 196.624V222.749H861.883C861.497 222.749 861.172 222.689 860.907 222.568C860.654 222.436 860.407 222.219 860.166 221.918L846.526 204.502C846.598 205.297 846.634 206.031 846.634 206.706V222.749H842.352V196.624H844.9C845.105 196.624 845.279 196.636 845.424 196.661C845.58 196.673 845.713 196.709 845.821 196.769C845.942 196.817 846.056 196.895 846.164 197.004C846.273 197.1 846.393 197.233 846.526 197.401L860.22 214.89C860.184 214.468 860.154 214.053 860.13 213.643C860.106 213.234 860.094 212.854 860.094 212.505V196.624H864.376ZM888.441 200.617H880.564V222.749H875.704V200.617H867.827V196.624H888.441V200.617ZM896.738 200.491V207.736H905.879V211.475H896.738V218.865H908.337V222.749H891.86V196.624H908.337V200.491H896.738Z" fill="#F5F0F0"/>
</svg>
