<svg width="800" height="800" viewBox="0 0 800 800" fill="none" xmlns="http://www.w3.org/2000/svg">
<rect width="800" height="800" rx="15" fill="white"/>
<path d="M238 258V263.5V442C238 480.66 269.34 512 308 512H492C530.66 512 562 480.66 562 442V258C562 219.34 530.66 188 492 188H323.5H308C269.34 188 238 219.34 238 258Z" fill="#1E1E1E"/>
<path d="M552.5 352.455L402.003 501.5H400.5H399.053L248.5 349.011V347.045L399.497 197.5H401.447L552.5 350.489V352.455Z" stroke="white" stroke-width="17"/>
<path d="M451.724 350.725L400.046 401.904L348.276 349.468L399.952 298.289L451.724 350.725Z" stroke="white" stroke-width="17"/>
<path d="M505.166 350.883L400.539 454.5H400.517L295.834 348.471L400.468 244.843L505.166 350.883Z" stroke="white" stroke-width="17"/>
<path d="M505.166 350.883L400.539 454.5H400.517L295.834 348.471L400.468 244.843L505.166 350.883Z" stroke="white" stroke-width="17"/>
<path d="M195.676 544.582V597H187.085V563.142C187.085 561.789 187.158 560.327 187.303 558.756L171.461 588.517C170.712 589.943 169.564 590.656 168.018 590.656H166.64C165.093 590.656 163.945 589.943 163.196 588.517L147.174 558.647C147.246 559.445 147.307 560.23 147.355 561.004C147.403 561.777 147.428 562.49 147.428 563.142V597H138.836V544.582H146.195C146.63 544.582 147.005 544.595 147.319 544.619C147.633 544.643 147.911 544.703 148.153 544.8C148.418 544.897 148.648 545.054 148.841 545.271C149.059 545.489 149.264 545.779 149.458 546.141L165.154 575.25C165.565 576.023 165.939 576.821 166.278 577.642C166.64 578.464 166.99 579.31 167.329 580.18C167.667 579.286 168.018 578.428 168.38 577.606C168.743 576.76 169.129 575.951 169.54 575.177L185.019 546.141C185.212 545.779 185.418 545.489 185.635 545.271C185.853 545.054 186.082 544.897 186.324 544.8C186.59 544.703 186.88 544.643 187.194 544.619C187.508 544.595 187.883 544.582 188.318 544.582H195.676ZM217.159 597H207.371V544.582H217.159V597ZM273.084 544.582V597H268.081C267.308 597 266.655 596.879 266.124 596.637C265.616 596.372 265.121 595.937 264.637 595.332L237.269 560.388C237.414 561.982 237.486 563.457 237.486 564.81V597H228.895V544.582H234.006C234.417 544.582 234.767 544.607 235.057 544.655C235.372 544.679 235.637 544.752 235.855 544.872C236.097 544.969 236.326 545.126 236.544 545.344C236.761 545.537 237.003 545.803 237.269 546.141L264.746 581.231C264.674 580.385 264.613 579.552 264.565 578.73C264.517 577.908 264.492 577.147 264.492 576.446V544.582H273.084ZM331.302 570.791C331.302 574.634 330.661 578.162 329.38 581.376C328.1 584.59 326.299 587.357 323.979 589.677C321.659 591.997 318.868 593.798 315.605 595.079C312.343 596.36 308.718 597 304.73 597H284.757V544.582H304.73C308.718 544.582 312.343 545.235 315.605 546.54C318.868 547.821 321.659 549.621 323.979 551.941C326.299 554.237 328.1 556.992 329.38 560.206C330.661 563.42 331.302 566.949 331.302 570.791ZM321.297 570.791C321.297 567.915 320.91 565.342 320.137 563.07C319.387 560.774 318.288 558.841 316.838 557.27C315.412 555.675 313.672 554.455 311.618 553.609C309.588 552.763 307.292 552.34 304.73 552.34H294.544V589.242H304.73C307.292 589.242 309.588 588.82 311.618 587.974C313.672 587.128 315.412 585.92 316.838 584.349C318.288 582.754 319.387 580.82 320.137 578.549C320.91 576.253 321.297 573.667 321.297 570.791ZM349.698 552.34V567.855H369.345V575.649H349.698V597H339.91V544.582H372.97V552.34H349.698ZM402.072 589.134C403.957 589.134 405.637 588.82 407.111 588.191C408.61 587.563 409.866 586.681 410.881 585.545C411.896 584.409 412.67 583.032 413.201 581.412C413.757 579.793 414.035 577.981 414.035 575.975V544.582H423.786V575.975C423.786 579.092 423.279 581.98 422.264 584.639C421.273 587.273 419.835 589.557 417.95 591.49C416.089 593.399 413.817 594.897 411.135 595.985C408.452 597.048 405.432 597.58 402.072 597.58C398.689 597.58 395.656 597.048 392.974 595.985C390.291 594.897 388.007 593.399 386.122 591.49C384.262 589.557 382.824 587.273 381.809 584.639C380.818 581.98 380.322 579.092 380.322 575.975V544.582H390.074V575.939C390.074 577.945 390.34 579.757 390.871 581.376C391.427 582.995 392.212 584.385 393.227 585.545C394.267 586.681 395.523 587.563 396.997 588.191C398.496 588.82 400.187 589.134 402.072 589.134ZM465.487 588.952V597H434.784V544.582H444.535V588.952H465.487ZM529.29 544.582V597H520.698V563.142C520.698 561.789 520.771 560.327 520.916 558.756L505.075 588.517C504.325 589.943 503.177 590.656 501.631 590.656H500.253C498.707 590.656 497.559 589.943 496.81 588.517L480.787 558.647C480.86 559.445 480.92 560.23 480.968 561.004C481.017 561.777 481.041 562.49 481.041 563.142V597H472.45V544.582H479.808C480.243 544.582 480.618 544.595 480.932 544.619C481.246 544.643 481.524 544.703 481.766 544.8C482.032 544.897 482.261 545.054 482.455 545.271C482.672 545.489 482.877 545.779 483.071 546.141L498.767 575.25C499.178 576.023 499.552 576.821 499.891 577.642C500.253 578.464 500.604 579.31 500.942 580.18C501.28 579.286 501.631 578.428 501.993 577.606C502.356 576.76 502.742 575.951 503.153 575.177L518.632 546.141C518.825 545.779 519.031 545.489 519.248 545.271C519.466 545.054 519.695 544.897 519.937 544.8C520.203 544.703 520.493 544.643 520.807 544.619C521.121 544.595 521.496 544.582 521.931 544.582H529.29ZM550.772 597H540.985V544.582H550.772V597ZM606.697 544.582V597H601.694C600.921 597 600.269 596.879 599.737 596.637C599.229 596.372 598.734 595.937 598.251 595.332L570.882 560.388C571.027 561.982 571.099 563.457 571.099 564.81V597H562.508V544.582H567.619C568.03 544.582 568.381 544.607 568.671 544.655C568.985 544.679 569.251 544.752 569.468 544.872C569.71 544.969 569.939 545.126 570.157 545.344C570.374 545.537 570.616 545.803 570.882 546.141L598.359 581.231C598.287 580.385 598.226 579.552 598.178 578.73C598.13 577.908 598.106 577.147 598.106 576.446V544.582H606.697ZM664.915 570.791C664.915 574.634 664.275 578.162 662.994 581.376C661.713 584.59 659.912 587.357 657.592 589.677C655.272 591.997 652.481 593.798 649.219 595.079C645.956 596.36 642.331 597 638.344 597H618.37V544.582H638.344C642.331 544.582 645.956 545.235 649.219 546.54C652.481 547.821 655.272 549.621 657.592 551.941C659.912 554.237 661.713 556.992 662.994 560.206C664.275 563.42 664.915 566.949 664.915 570.791ZM654.91 570.791C654.91 567.915 654.523 565.342 653.75 563.07C653.001 560.774 651.901 558.841 650.451 557.27C649.025 555.675 647.285 554.455 645.231 553.609C643.201 552.763 640.905 552.34 638.344 552.34H628.157V589.242H638.344C640.905 589.242 643.201 588.82 645.231 587.974C647.285 587.128 649.025 585.92 650.451 584.349C651.901 582.754 653.001 580.82 653.75 578.549C654.523 576.253 654.91 573.667 654.91 570.791Z" fill="#1E1E1E"/>
</svg>
